<svg id="Layer_1" data-name="Layer 1" xmlns="http://www.w3.org/2000/svg" viewBox="0 0 339.16 69.42"><defs><style>.cls-1{font-size:32px;fill:#4c4b51;font-family:Bozon-Bold, Bozon;font-weight:700;}.cls-2{letter-spacing:0em;}.cls-3{letter-spacing:-0.02em;}.cls-4{letter-spacing:-0.04em;}.cls-5{letter-spacing:0em;}.cls-6{letter-spacing:-0.04em;}.cls-7{letter-spacing:-0.01em;}.cls-8{letter-spacing:-0.01em;}.cls-9{letter-spacing:-0.03em;}.cls-10{letter-spacing:-0.01em;}.cls-11{fill:#5e4fe6;}.cls-12{fill:#d8e2ff;fill-rule:evenodd;}</style></defs><text class="cls-1" transform="translate(82.46 46.68)"><tspan class="cls-2">D</tspan><tspan class="cls-3" x="25.18" y="0">a</tspan><tspan class="cls-4" x="45.22" y="0">t</tspan><tspan class="cls-5" x="59.33" y="0">a </tspan><tspan class="cls-6" x="88.29" y="0">f</tspan><tspan class="cls-7" x="101.34" y="0">o</tspan><tspan class="cls-5" x="121.28" y="0">r </tspan><tspan class="cls-8" x="143.14" y="0">G</tspan><tspan class="cls-9" x="169.79" y="0">r</tspan><tspan x="182.24" y="0">ee</tspan><tspan class="cls-10" x="219.93" y="0">c</tspan><tspan x="237.85" y="0">e</tspan></text><path class="cls-11" d="M106,70.37v.28q0,.93-.06,1.86c0,.18,0,.37,0,.55-.05.67-.12,1.34-.21,2l-.09.6c-.11.74-.24,1.47-.4,2.2l-.15.66c-.2.83-.43,1.66-.69,2.47l-.25.76q-.52,1.5-1.17,2.94c-.14.32-.29.63-.44.94a33.39,33.39,0,0,1-2.36,4.11c-.38.58-.79,1.15-1.21,1.71a34.51,34.51,0,0,1-7.24,7.09c-.57.41-1.14.81-1.73,1.18A34.45,34.45,0,0,1,85.82,102l-.95.42q-1.44.6-2.94,1.08l-.76.23c-.81.24-1.64.45-2.47.62l-.66.14c-.72.14-1.45.25-2.19.34l-.59.07c-.66.07-1.33.12-2,.15l-.54,0-1.13,0h-.72l-.51,0c-.58,0-1.15,0-1.73-.1l-.47,0c-.55-.05-1.09-.12-1.63-.2l-.46-.07c-.51-.08-1-.18-1.54-.29h0c-.14,0-.28,0-.42-.09q-.75-.16-1.47-.36l-.41-.11-1.4-.43-.39-.14c-.45-.15-.89-.32-1.33-.49l-.37-.15c-.43-.17-.86-.35-1.28-.55l-.35-.16h0c-.41-.19-.82-.39-1.22-.6l-.34-.18q-.6-.31-1.17-.66l-.33-.19h0c-.38-.22-.75-.46-1.12-.7l-.31-.21c-.37-.24-.73-.49-1.08-.74l-.3-.22c-.34-.26-.69-.52-1-.79l-.29-.24-1-.83-.28-.25c-.32-.28-.63-.58-.94-.88l-.26-.25-.9-.92-.24-.27c-.29-.32-.58-.64-.86-1l-.23-.28c-.28-.33-.55-.66-.81-1l-.22-.3c-.27-.34-.52-.69-.77-1l-.21-.3c-.25-.36-.49-.73-.72-1.1-.06-.11-.13-.21-.2-.32-.23-.37-.45-.76-.67-1.14l-.18-.33c-.22-.39-.42-.79-.62-1.19-.06-.12-.12-.23-.17-.35-.2-.41-.39-.82-.57-1.24-.06-.12-.11-.24-.16-.36-.18-.42-.35-.85-.52-1.29-.05-.12-.09-.25-.14-.38-.16-.44-.31-.89-.46-1.35l-.12-.39c-.14-.46-.27-.93-.4-1.41,0-.13-.07-.27-.1-.41-.12-.48-.23-1-.33-1.47,0-.15-.06-.29-.08-.43h0c-.1-.52-.19-1-.26-1.55l-.06-.46c-.07-.54-.13-1.08-.17-1.63,0-.16,0-.32,0-.48,0-.57-.06-1.14-.07-1.72,0-.17,0-.34,0-.51v-.15c0-.57,0-1.13,0-1.69h0l0-.54q.06-1,.18-2c0-.19,0-.39.08-.58h0q.15-1.1.36-2.16h0c.05-.21.09-.43.14-.64h0c.18-.81.39-1.61.62-2.41.08-.24.15-.49.23-.73.31-1,.66-1.91,1-2.83l.39-.9h0a34.57,34.57,0,0,1,2-3.76c.29-.47.59-.94.91-1.39A34.74,34.74,0,0,1,53,41.18h0c.46-.31.93-.59,1.41-.87h0a34.15,34.15,0,0,1,3.77-1.91h0l.9-.37h0c.93-.36,1.87-.69,2.83-1l.74-.21c.79-.21,1.6-.4,2.41-.56l.64-.12c.71-.12,1.43-.22,2.15-.3h0a5.7,5.7,0,0,1,.58-.06c.65-.06,1.31-.11,2-.13h1.21l1.15,0h0l.5,0c.57,0,1.14.07,1.71.13h0l.47,0c.55.06,1.08.14,1.61.22l.45.08h0q.78.13,1.53.3l.42.1c.49.11,1,.24,1.46.37l.4.12c.47.14.93.28,1.39.44l.38.14c.45.15.89.32,1.32.5l.37.15,1.27.56.35.17c.41.19.81.4,1.21.61l.34.18c.39.21.78.44,1.16.66h0l.32.2c.38.23.75.46,1.12.71l.31.21c.36.24.71.49,1.06.75l.3.23c.34.25.68.52,1,.79l.28.24c.33.27.66.56,1,.84l.27.25c.31.29.62.58.93.89l.26.25c.3.31.6.62.89.94l.24.27c.29.31.57.64.85,1l.23.28c.28.34.54.67.8,1a3.15,3.15,0,0,1,.22.29c.26.35.51.7.76,1.06l.21.31c.24.36.48.73.71,1.1l.19.33c.23.37.45.76.66,1.15.07.11.13.22.19.33.21.39.41.79.61,1.2.06.11.11.23.17.35.19.41.38.83.56,1.25l.15.36c.18.43.35.86.51,1.3,0,.13.09.25.13.38.16.45.31.9.45,1.36l.12.4c.14.47.27.94.39,1.42,0,.14.07.27.1.41.11.49.22,1,.31,1.49,0,.14.06.29.08.44.1.51.18,1,.24,1.56,0,.15,0,.3.06.46q.1.81.15,1.65a3.87,3.87,0,0,1,0,.48c0,.58,0,1.16.06,1.75Z" transform="translate(-37.18 -35.66)"/><g id="Layer_1-2" data-name="Layer 1"><path class="cls-12" d="M79.07,45.46c.15.69,1.48,2.24.48,2.94a4.79,4.79,0,0,1-2.7,1c-.78,0-.88-.33-3.1-.82s-3.82-2.18-5.63-.64-7.45,2.52-10,2.89a8.2,8.2,0,0,0-4.36,2.3c-.21.18-2.14-2.27-2.59-.42s.09,2.36-.3,2.58A38.19,38.19,0,0,0,47.5,58c-.45.38.23,1.06,0,1.59-.59,1.11-1.83,2.2-1.5,3.08,1.08,2.91,2.46,3.24,2.76,4.16s.55,2.24,0,3-1.2,3.27-.12,3,2.59-2.79,3.43-2,1.45,2,2.83,1.46,2.53-1.64,4-.73,4.21,1.39,4,2.06-.66,1.27-1.56,1S59.19,73.4,58,73.4a15.94,15.94,0,0,0-4.87,1c-.43.36-2.77,1-2,1.58s1.71,0,2.41,2.24-.85.73-.3,2.43A6.33,6.33,0,0,0,54.8,83.5c.42.43.84.73,1-.79s1.33-1.33,1.6-.39.94,1.59.91,2.55.49,1.62.71,1.33.32-2,.68-2.3,1.16-.16,1.56.71a6.58,6.58,0,0,0,1.1,1.56s1.16.23.86-.57a24.15,24.15,0,0,1-.62-2.48c-.31-1.21-2.51-4.16-1.66-4.3,1.08-.18,1.76,1,2.22,1.82S64.7,82,64.85,81.91a15.83,15.83,0,0,0,1.39-1.42c.22-.29,1.2-1.25-.24-1.47a4.91,4.91,0,0,1-2.43-1.19s.35-2.42,1.49-1.85,1.84.18,2.46,1.25,1.45,1.2,1.85,1-1.17-3.69-1-4.48,1.23.46,1.75,1,4.48,3.58,5,4.25,1.07-1.75.32-2.69A16.42,16.42,0,0,0,73,74c-.9-.76-2.87-2.22-2.87-2.22s-.09-3-1.66-2.94a5.47,5.47,0,0,1-3.73-1.13,5.1,5.1,0,0,1-.69-2.18,11.17,11.17,0,0,1-1.95-2.85c-.88-1.79-1.27-1.64-1.66-3s-.24-4.94.69-4.79,1.33,2.58,1.9,3.34,1.55,0,2.79.7,2.23,1.63,2.71,1.39c.71-.36-.21-1.72.17-2.18.77-.94,1.76-.82.7-1.58s-2.21-.61-2.51-1.47-.64-2,.27-1.55,2.87-.44,3.25-.2,1,2.77,2,3.36a1.47,1.47,0,0,0,1.79-.94c.36-1.31.46-4.63,1.34-4C77.06,53,77.94,54.65,80,53.51c1.32-.73,1.14-1.18,1.8-2.43S83.17,50,83.2,48.62s-.75-2.61-4.13-3.16Z" transform="translate(-37.18 -35.66)"/><path class="cls-12" d="M64,88.22s1.88-.47,2.87.44,1.48-1.91,2.14-.4.74,2.66,2.25,2.39a13,13,0,0,1,4.54.09c1.2.38,3.86.79,4.5.94.81.18.69,1.73,0,2s-2.13-.52-3-.37-3.28.61-3.61.61a10.13,10.13,0,0,1-3-.15c-.49-.3-.58-1.09-1.27-1.33s-3.82-.55-4.18-.79-2.5-1.25-1.29-3.4Z" transform="translate(-37.18 -35.66)"/><path class="cls-12" d="M91.06,85.64a3.8,3.8,0,0,0-1.83,2.73c-.09,1.18,0,2.21,1.14,1.79s1.81-2.94,2.11-3.37-.3-1.52-1.42-1.15Z" transform="translate(-37.18 -35.66)"/><path class="cls-12" d="M85.92,76.41c-.39-.18-1.77-1.42-2.34-.75-1,1.22-3.25-.19-3.5.23s-2.49,2.6-1.8,2.5A27.13,27.13,0,0,1,81,78.1c.45,0,.45,1.33,1.5.66a5.92,5.92,0,0,1,2.27-1c.3,0,1.8-.12,1.11-1.34Z" transform="translate(-37.18 -35.66)"/><path class="cls-12" d="M77.65,64.64c.31-1,.47-.85,1.88-1.64s2.36,1.13,2.63,1.61,2.29,2.46,1.08,2.7-2.28-.65-2.73-.8a18.47,18.47,0,0,1-2.08-.24C77.89,66,77.65,64.64,77.65,64.64Z" transform="translate(-37.18 -35.66)"/><path class="cls-12" d="M79.3,69.28c.85.7,1.54,1.28,1.54,2s0,1.91-.6,2.21-1.9-.57-1.69-1.3-.66-1-.63-1.73,1.38-1.22,1.38-1.22Z" transform="translate(-37.18 -35.66)"/><path class="cls-12" d="M44.79,75.54a2.78,2.78,0,0,0,1.08,1.15c2.35,1.73,2.8-1.66,2.37-1.66s-1.6-1.39-1.87-1.39-2,.63-1.58,1.9Z" transform="translate(-37.18 -35.66)"/></g><text x="-37.18" y="-35.66"/></svg>