<svg version="1.2" xmlns="http://www.w3.org/2000/svg" viewBox="0 0 69 70" width="69" height="70"><style>.a{fill:#4c4b51}.b{fill:#5e4fe6}.c{fill:#d8e2ff}</style><path fill-rule="evenodd" class="a" d="m106.2 35.1c0 6.7-5.3 11.6-12.6 11.6h-8.3v-23.2h8.4c7.3 0 12.5 4.8 12.5 11.6zm-4.5 0c0-4.5-3.2-7.5-8-7.5h-4v14.9h4c4.7 0 8-3 8-7.4z"/><path fill-rule="evenodd" class="a" d="m125.9 30.6v16.1h-4.1v-2.4q-0.4 0.6-1 1.2-0.5 0.5-1.2 0.9-0.7 0.3-1.5 0.5-0.7 0.2-1.5 0.1c-4.5 0-7.6-3.4-7.6-8.3 0-5 3.1-8.5 7.7-8.5q0.8 0 1.5 0.2 0.8 0.1 1.4 0.5 0.7 0.4 1.3 0.9 0.5 0.5 0.9 1.2v-2.4zm-4.1 8.1q0-0.9-0.3-1.8-0.3-0.8-0.9-1.4-0.6-0.6-1.4-1-0.8-0.3-1.7-0.3c-1.2 0.1-2.2 0.6-3 1.4-0.8 0.8-1.2 1.9-1.2 3.1 0 1.1 0.4 2.2 1.2 3 0.8 0.8 1.8 1.3 3 1.4q0.9 0 1.7-0.3 0.8-0.4 1.4-1 0.6-0.6 0.9-1.4 0.3-0.9 0.3-1.7z"/><path class="a" d="m142.1 46q-0.5 0.3-1.1 0.5-0.5 0.2-1.1 0.3-0.6 0.1-1.2 0.2-0.6 0.1-1.2 0c-4.2 0-6.2-2-6.2-6.2v-6.5h-2.9v-3.7h2.9v-4.3h4.3v4.3h5.4v3.7h-5.4v6.2c0 2 0.6 2.7 2.5 2.7q0.3 0 0.7-0.1 0.4 0 0.7-0.1 0.4-0.1 0.7-0.3 0.3-0.1 0.6-0.4z"/><path fill-rule="evenodd" class="a" d="m160.1 30.6v16.1h-4.2v-2.4q-0.4 0.6-0.9 1.2-0.6 0.5-1.3 0.9-0.7 0.3-1.4 0.5-0.8 0.2-1.6 0.1c-4.5 0-7.6-3.4-7.6-8.3 0-5 3.1-8.5 7.7-8.5q0.8 0 1.5 0.2 0.8 0.1 1.5 0.5 0.6 0.4 1.2 0.9 0.5 0.5 0.9 1.2v-2.4zm-4.1 8.1q0-0.9-0.3-1.8-0.3-0.8-0.9-1.4-0.6-0.6-1.5-1-0.8-0.3-1.6-0.3c-1.2 0.1-2.2 0.6-3 1.4-0.8 0.8-1.2 1.9-1.2 3.1 0 1.1 0.4 2.2 1.2 3 0.8 0.8 1.8 1.3 3 1.4q0.8 0 1.6-0.3 0.9-0.4 1.5-1 0.6-0.6 0.9-1.4 0.3-0.9 0.3-1.7z"/><path class="a" d="m178.7 30.6h5.5v3.7h-5.5v12.4h-4.3v-12.4h-2.8v-3.7h2.8v-1.7c0-4 2.4-6.4 6.4-6.4q0.6 0 1.2 0.1 0.6 0.1 1.2 0.3 0.6 0.2 1.2 0.5 0.5 0.3 1 0.6l-1.4 3.3q-0.3-0.2-0.6-0.4-0.3-0.2-0.6-0.3-0.4-0.1-0.7-0.2-0.4-0.1-0.7-0.1-0.6 0-1.1 0.2-0.5 0.2-0.9 0.6-0.4 0.4-0.6 0.9-0.2 0.5-0.1 1.1z"/><path fill-rule="evenodd" class="a" d="m185 38.7c0-4.9 3.8-8.5 8.8-8.5 5.1 0 8.8 3.5 8.8 8.5 0 4.8-3.7 8.3-8.8 8.3-5 0-8.8-3.5-8.8-8.3zm13.3 0q0-1-0.3-1.8-0.3-0.9-0.9-1.5-0.7-0.6-1.5-1-0.9-0.3-1.8-0.2c-1.8-0.1-3.4 1-4.1 2.7-0.8 1.7-0.4 3.6 0.9 4.9 1.3 1.3 3.2 1.7 4.9 1 1.6-0.7 2.7-2.3 2.7-4.1z"/><path class="a" d="m206 30.6h4.1v3.4q0.3-0.9 0.8-1.6 0.6-0.7 1.3-1.1 0.7-0.5 1.5-0.8 0.9-0.2 1.7-0.2 0.2 0 0.3 0 0.1 0 0.3 0.1 0.1 0 0.2 0 0.1 0 0.2 0l-0.2 4.4h-0.6c-3.8 0-5.3 1.6-5.3 5.7v6.2h-4.3z"/><path class="a" d="m227.3 35.1c-0.1-1.6 0.2-3.2 0.8-4.7 0.6-1.4 1.5-2.8 2.6-3.9 1.1-1.1 2.4-2 3.9-2.6 1.5-0.5 3.1-0.8 4.7-0.8q1.6 0 3.2 0.3 1.5 0.4 2.9 1.2 1.4 0.8 2.5 2 1.2 1.2 1.9 2.6l-4.3 1.6q-0.4-0.8-1.1-1.5-0.6-0.7-1.5-1.2-0.8-0.5-1.7-0.7-1-0.2-1.9-0.1c-4.4 0-7.5 3.2-7.5 7.8 0 4.6 3.1 7.8 7.4 7.8q1.3 0 2.5-0.3 1.2-0.4 2.2-1.2 0.9-0.8 1.6-1.9 0.6-1.1 0.8-2.3h-7.5v-3.6h12.1q0 0.2 0 0.3 0 0.2 0.1 0.4 0 0.2 0 0.4 0 0.2 0 0.4c0 7-4.8 11.9-11.8 11.9-1.6 0.1-3.2-0.2-4.7-0.8-1.4-0.6-2.8-1.4-3.9-2.6-1.1-1.1-2-2.4-2.5-3.9-0.6-1.5-0.9-3-0.8-4.6z"/><path class="a" d="m254.5 30.6h4.2v3.4q0.2-0.9 0.8-1.6 0.5-0.7 1.2-1.1 0.7-0.5 1.6-0.8 0.8-0.2 1.7-0.2 0.1 0 0.2 0 0.1 0 0.3 0.1 0.1 0 0.2 0 0.1 0 0.3 0l-0.3 4.4h-0.6c-3.7 0-5.3 1.6-5.3 5.7v6.2h-4.3z"/><path fill-rule="evenodd" class="a" d="m282.4 40h-12.1q0.1 0.7 0.4 1.3 0.4 0.7 0.9 1.1 0.6 0.5 1.3 0.7 0.7 0.2 1.4 0.1 0.5 0.1 1.1 0 0.5-0.1 1-0.4 0.4-0.2 0.8-0.6 0.4-0.4 0.6-0.9l3.8 1.8c-1 1.5-2.4 2.7-4.1 3.3-1.8 0.7-3.6 0.7-5.4 0.2-1.8-0.5-3.3-1.5-4.4-3-1.1-1.4-1.8-3.2-1.8-5 0-4.9 3.6-8.4 8.6-8.4 4.7 0 7.9 3.5 7.9 8.5 0 0.6 0 1.3 0 1.3zm-4.2-3.2c-0.1-1.7-1.6-2.9-3.7-2.9-2.2 0-3.7 1-4.1 2.9z"/><path fill-rule="evenodd" class="a" d="m301.2 40h-12.1q0.1 0.7 0.5 1.3 0.3 0.7 0.9 1.1 0.5 0.5 1.2 0.7 0.7 0.2 1.4 0.1 0.6 0.1 1.1 0 0.5-0.1 1-0.4 0.5-0.2 0.9-0.6 0.4-0.4 0.6-0.9l3.8 1.8c-1 1.5-2.4 2.7-4.2 3.3-1.7 0.6-3.5 0.7-5.3 0.2-1.7-0.5-3.3-1.5-4.4-3-1.1-1.4-1.7-3.2-1.8-5 0-4.8 3.6-8.3 8.6-8.3 4.7 0 7.9 3.4 7.9 8.4 0 0.6-0.1 1.3-0.1 1.3zm-4.1-3.2c-0.2-1.7-1.6-2.9-3.8-2.9-2.2 0-3.6 1-4.1 2.9z"/><path class="a" d="m303.6 38.6c0-1.1 0.2-2.2 0.7-3.3 0.4-1 1-1.9 1.8-2.7 0.8-0.8 1.8-1.4 2.8-1.8 1.1-0.4 2.2-0.6 3.3-0.6q1.1 0 2.2 0.3 1.1 0.3 2.1 0.9 1 0.6 1.8 1.4 0.7 0.9 1.2 1.9l-3.9 1.6q-0.2-0.5-0.6-0.9-0.4-0.4-0.8-0.6-0.5-0.3-1-0.4-0.5-0.2-1-0.1-0.9-0.1-1.7 0.3-0.7 0.3-1.3 0.9-0.6 0.6-0.9 1.4-0.3 0.8-0.3 1.7c0 2.6 1.7 4.5 4 4.5q0.6 0 1.2-0.2 0.6-0.1 1.1-0.4 0.5-0.3 0.9-0.7 0.4-0.5 0.6-1l3.9 1.5c-0.8 1.7-2.3 3.1-4 3.9-1.7 0.8-3.7 1-5.5 0.6-1.9-0.5-3.5-1.5-4.7-3-1.2-1.5-1.8-3.3-1.9-5.2z"/><path fill-rule="evenodd" class="a" d="m338 40h-12.1q0.1 0.7 0.4 1.3 0.4 0.7 1 1.1 0.5 0.5 1.2 0.7 0.7 0.2 1.4 0.1 0.6 0.1 1.1 0 0.5-0.1 1-0.4 0.5-0.2 0.8-0.6 0.4-0.4 0.7-0.9l3.8 1.8c-1 1.5-2.5 2.7-4.2 3.3-1.7 0.7-3.6 0.7-5.3 0.2-1.8-0.5-3.4-1.5-4.5-3-1.1-1.4-1.7-3.2-1.7-5 0-4.9 3.5-8.4 8.5-8.4 4.7 0 7.9 3.5 7.9 8.5 0 0.6 0 1.3 0 1.3zm-4.2-3.2c-0.1-1.7-1.6-2.9-3.7-2.9-2.2 0-3.7 1-4.2 2.9z"/><path class="b" d="m68.8 34.7v0.3q0 0.9 0 1.9 0 0.2 0 0.5-0.1 1-0.2 2l-0.1 0.6q-0.2 1.1-0.4 2.2l-0.2 0.7q-0.3 1.2-0.7 2.4l-0.2 0.8q-0.6 1.5-1.2 2.9-0.2 0.5-0.4 1-0.3 0.5-0.6 1-0.3 0.6-0.5 1.1-0.3 0.5-0.7 1-0.3 0.5-0.6 1-0.6 0.9-1.2 1.7-0.8 1-1.6 2-0.9 0.9-1.8 1.8-0.9 0.9-1.8 1.7-1 0.8-2 1.6-0.9 0.6-1.8 1.2-0.5 0.3-1 0.6-0.5 0.3-1 0.6-0.6 0.3-1.1 0.5-0.5 0.3-1.1 0.5l-0.9 0.5q-1.5 0.6-3 1l-0.7 0.3q-1.2 0.3-2.5 0.6l-0.6 0.1q-1.1 0.2-2.2 0.4h-0.6q-1 0.1-2 0.2h-0.6-1.1-0.7-0.5c-0.6 0-1.2 0-1.8-0.1h-0.4q-0.8-0.1-1.7-0.2l-0.4-0.1c-0.5-0.1-1-0.2-1.6-0.3-0.1 0-0.2 0-0.4-0.1q-0.7-0.1-1.4-0.3l-0.5-0.1-1.4-0.5-0.3-0.1q-0.7-0.2-1.4-0.5l-0.3-0.1q-0.7-0.3-1.3-0.6l-0.4-0.1q-0.6-0.3-1.2-0.6l-0.3-0.2q-0.6-0.3-1.2-0.7l-0.3-0.2q-0.6-0.3-1.2-0.7l-0.3-0.2q-0.5-0.4-1-0.7l-0.3-0.2q-0.6-0.4-1-0.8l-0.3-0.3-1-0.8-0.3-0.3q-0.5-0.4-0.9-0.8l-0.3-0.3-0.9-0.9-0.2-0.3q-0.5-0.4-0.9-1l-0.2-0.3q-0.5-0.5-0.8-1l-0.3-0.3q-0.4-0.5-0.7-1l-0.2-0.3q-0.4-0.5-0.8-1.1-0.1-0.1-0.2-0.3-0.3-0.5-0.6-1.1l-0.2-0.3q-0.3-0.6-0.6-1.2-0.1-0.2-0.2-0.4-0.3-0.6-0.6-1.2-0.1-0.2-0.1-0.4-0.3-0.6-0.6-1.3 0-0.2-0.1-0.4-0.2-0.6-0.5-1.3l-0.1-0.4q-0.2-0.7-0.4-1.4c0-0.1 0-0.3-0.1-0.4-0.1-0.5-0.2-1-0.3-1.5 0-0.1-0.1-0.3-0.1-0.4-0.1-0.5-0.2-1-0.2-1.6l-0.1-0.4q-0.1-0.8-0.2-1.7 0-0.2 0-0.4c0-0.6 0-1.2 0-1.8q0-0.2 0-0.5v-0.1q0-0.9 0-1.7v-0.5q0-1 0.1-2c0-0.2 0-0.4 0.1-0.6q0.2-1.1 0.4-2.2 0-0.3 0.1-0.6 0.3-1.2 0.6-2.4 0.1-0.4 0.3-0.8c0.3-1 0.6-1.9 1-2.8l0.3-0.9q0.3-0.5 0.5-1 0.2-0.4 0.5-0.9 0.2-0.5 0.5-0.9 0.3-0.5 0.6-1 0.4-0.7 0.9-1.3 0.9-1.5 2.1-2.8 1.1-1.3 2.3-2.6 1.2-1.2 2.6-2.3 1.4-1 2.8-2 0.7-0.4 1.4-0.8 0.5-0.3 0.9-0.6 0.5-0.2 1-0.5 0.5-0.2 0.9-0.4 0.5-0.3 1-0.5l0.9-0.3q1.4-0.6 2.8-1l0.8-0.2q1.2-0.4 2.4-0.6l0.6-0.1q1.1-0.2 2.2-0.3 0 0 0.1 0 0.1 0 0.2-0.1 0 0 0.1 0 0.1 0 0.2 0 0.9-0.1 2-0.1h1.2 1.1 0.5c0.6 0 1.2 0.1 1.7 0.1h0.5q0.8 0.1 1.6 0.2l0.5 0.1q0.7 0.2 1.5 0.3l0.4 0.1c0.5 0.1 1 0.3 1.5 0.4l0.4 0.1q0.7 0.2 1.4 0.4l0.3 0.2q0.7 0.2 1.3 0.5l0.4 0.1 1.3 0.6 0.3 0.2q0.7 0.3 1.2 0.6l0.4 0.2q0.6 0.3 1.1 0.6l0.4 0.2q0.5 0.4 1.1 0.7l0.3 0.2q0.5 0.4 1.1 0.8l0.3 0.2q0.5 0.4 1 0.8l0.2 0.2q0.5 0.5 1 0.9l0.3 0.2q0.5 0.5 0.9 0.9l0.3 0.3q0.5 0.4 0.9 0.9l0.2 0.3q0.5 0.5 0.9 1l0.2 0.3q0.4 0.5 0.8 1 0 0 0.1 0 0 0.1 0 0.1 0.1 0 0.1 0.1 0 0 0 0.1 0.4 0.5 0.8 1l0.2 0.3q0.4 0.6 0.7 1.1l0.2 0.4q0.3 0.5 0.7 1.1 0.1 0.2 0.1 0.3 0.4 0.6 0.7 1.2 0 0.2 0.1 0.4 0.3 0.6 0.6 1.2l0.1 0.4q0.3 0.6 0.5 1.3c0 0.1 0.1 0.3 0.2 0.4q0.2 0.7 0.4 1.3l0.1 0.4q0.3 0.7 0.4 1.5c0 0.1 0.1 0.2 0.1 0.4q0.2 0.7 0.3 1.5c0 0.1 0.1 0.3 0.1 0.4 0.1 0.5 0.2 1 0.3 1.6q0 0.2 0 0.4 0.1 0.8 0.2 1.7 0 0 0 0.1 0 0 0 0.1 0 0.1 0 0.1 0 0.1 0 0.2 0 0.8 0 1.7z"/><path fill-rule="evenodd" class="c" d="m41.9 9.8c0.1 0.7 1.5 2.2 0.5 2.9q-0.3 0.3-0.6 0.4-0.4 0.2-0.7 0.3-0.3 0.2-0.7 0.2-0.4 0.1-0.7 0.1c-0.8 0-0.9-0.3-3.1-0.8-2.2-0.5-3.8-2.2-5.7-0.6-1.8 1.5-7.4 2.5-10 2.9q-0.6 0.1-1.2 0.3-0.6 0.2-1.1 0.5-0.6 0.3-1.1 0.7-0.5 0.3-0.9 0.8c-0.2 0.1-2.2-2.3-2.6-0.5-0.5 1.9 0.1 2.4-0.3 2.6q-0.5 0.3-0.9 0.7-0.4 0.3-0.8 0.6-0.5 0.4-0.9 0.7-0.4 0.4-0.8 0.7c-0.4 0.4 0.2 1.1 0 1.6-0.6 1.1-1.8 2.2-1.5 3.1 1.1 2.9 2.5 3.2 2.8 4.2 0.3 0.9 0.5 2.2 0 3-0.6 0.7-1.2 3.2-0.1 3 1-0.3 2.6-2.8 3.4-2 0.8 0.8 1.4 2 2.8 1.4 1.4-0.5 2.6-1.6 4-0.7 1.5 0.9 4.2 1.4 4 2.1-0.2 0.6-0.6 1.2-1.5 1-0.9-0.3-2.2-1.3-3.4-1.3q-0.6 0.1-1.2 0.1-0.6 0.1-1.3 0.2-0.6 0.2-1.2 0.3-0.6 0.2-1.2 0.4c-0.4 0.4-2.7 1-1.9 1.6 0.7 0.6 1.7 0 2.4 2.3 0.7 2.2-0.9 0.7-0.3 2.4q0.1 0.4 0.2 0.8 0.2 0.4 0.4 0.7 0.2 0.4 0.4 0.7 0.2 0.3 0.5 0.6c0.4 0.5 0.9 0.8 1-0.8 0.2-1.5 1.3-1.3 1.6-0.3 0.3 0.9 1 1.5 0.9 2.5 0 1 0.5 1.6 0.7 1.3 0.3-0.3 0.4-2 0.7-2.3 0.4-0.3 1.2-0.1 1.6 0.7q0.1 0.3 0.2 0.5 0.1 0.2 0.3 0.4 0.1 0.2 0.3 0.4 0.1 0.1 0.3 0.3c0.1 0.1 1.1 0.2 0.8-0.6q-0.1-0.3-0.1-0.6-0.1-0.3-0.2-0.6-0.1-0.3-0.1-0.6-0.1-0.3-0.2-0.6c-0.3-1.3-2.5-4.2-1.6-4.3 1-0.2 1.7 1 2.2 1.8 0.4 0.8 1.5 1.3 1.7 1.2q0.2-0.1 0.3-0.3 0.2-0.2 0.4-0.3 0.2-0.2 0.3-0.4 0.2-0.2 0.4-0.4c0.2-0.3 1.2-1.2-0.3-1.4q-0.3-0.1-0.6-0.2-0.4-0.1-0.7-0.3-0.3-0.1-0.6-0.3-0.3-0.2-0.5-0.4c-0.2-0.2 0.3-2.5 1.5-1.9 1.1 0.6 1.8 0.2 2.4 1.3 0.7 1 1.5 1.2 1.9 1 0.4-0.2-1.2-3.7-1-4.5 0.2-0.8 1.2 0.4 1.7 1 0.6 0.5 4.5 3.6 5 4.2 0.6 0.7 1.1-1.7 0.4-2.6q-0.3-0.4-0.6-0.7-0.3-0.3-0.6-0.6-0.3-0.3-0.6-0.5-0.3-0.3-0.7-0.6c-0.9-0.7-2.9-2.2-2.9-2.2 0 0 0-3-1.6-2.9q-0.5 0-1 0-0.5-0.1-1-0.2-0.5-0.2-0.9-0.4-0.4-0.2-0.8-0.5-0.2-0.3-0.3-0.6-0.1-0.2-0.2-0.5-0.1-0.3-0.2-0.6 0-0.2 0-0.5-0.3-0.3-0.6-0.7-0.3-0.3-0.5-0.7-0.3-0.3-0.5-0.7-0.2-0.4-0.4-0.8c-0.9-1.8-1.3-1.6-1.6-3-0.4-1.3-0.3-4.9 0.6-4.8 1 0.2 1.4 2.6 1.9 3.4 0.6 0.7 1.6 0 2.8 0.7 1.3 0.7 2.3 1.6 2.7 1.4 0.8-0.4-0.2-1.8 0.2-2.2 0.8-1 1.8-0.8 0.7-1.6-1-0.8-2.2-0.6-2.5-1.5-0.3-0.8-0.6-2 0.3-1.5 0.9 0.4 2.8-0.5 3.2-0.2 0.4 0.2 1 2.8 2 3.3q0.3 0.1 0.6 0.1 0.3 0 0.5-0.2 0.3-0.1 0.4-0.3 0.2-0.2 0.3-0.5c0.4-1.3 0.5-4.6 1.4-4 1.5 1.2 2.4 2.9 4.4 1.8 1.3-0.8 1.2-1.2 1.8-2.5 0.7-1.2 1.4-1.1 1.4-2.4 0.1-1.4-0.7-2.6-4.1-3.2z"/><path fill-rule="evenodd" class="c" d="m26.8 52.6c0 0 1.9-0.5 2.9 0.4 1 0.9 1.5-1.9 2.1-0.4 0.7 1.5 0.8 2.7 2.3 2.4q0.5-0.1 1.1-0.1 0.6-0.1 1.2-0.1 0.5 0 1.1 0.1 0.6 0.1 1.1 0.2c1.2 0.4 3.9 0.8 4.5 0.9 0.8 0.2 0.7 1.7 0 2-0.7 0.3-2.1-0.5-3-0.4-0.8 0.2-3.3 0.7-3.6 0.7q-0.4 0-0.7 0-0.4 0-0.8 0-0.4 0-0.7-0.1-0.4 0-0.8-0.1c-0.5-0.3-0.6-1.1-1.3-1.3-0.6-0.3-3.8-0.6-4.1-0.8-0.4-0.3-2.5-1.3-1.3-3.4z"/><path fill-rule="evenodd" class="c" d="m53.9 50q-0.4 0.2-0.7 0.5-0.3 0.3-0.5 0.6-0.3 0.4-0.4 0.8-0.2 0.4-0.2 0.8c-0.1 1.2 0 2.2 1.1 1.8 1.1-0.4 1.8-2.9 2.1-3.4 0.3-0.4-0.3-1.5-1.4-1.1z"/><path fill-rule="evenodd" class="c" d="m48.7 40.8c-0.4-0.2-1.7-1.5-2.3-0.8-1 1.2-3.3-0.2-3.5 0.2-0.3 0.5-2.5 2.6-1.8 2.5q0.3 0 0.7-0.1 0.3 0 0.7 0 0.3-0.1 0.6-0.1 0.4 0 0.7-0.1c0.5 0 0.5 1.4 1.5 0.7q0.3-0.2 0.5-0.3 0.3-0.2 0.6-0.3 0.3-0.1 0.6-0.2 0.3-0.1 0.6-0.2c0.3 0 1.8-0.1 1.1-1.3z"/><path fill-rule="evenodd" class="c" d="m40.5 29c0.3-1 0.4-0.9 1.9-1.7 1.4-0.7 2.3 1.2 2.6 1.7 0.2 0.4 2.3 2.4 1.1 2.7-1.3 0.2-2.3-0.7-2.8-0.8q-0.2-0.1-0.5-0.1-0.3 0-0.5 0-0.3-0.1-0.5-0.1-0.3 0-0.5-0.1c-0.6-0.3-0.8-1.6-0.8-1.6z"/><path fill-rule="evenodd" class="c" d="m42.1 33.6c0.9 0.7 1.6 1.3 1.6 2 0 0.7 0 1.9-0.6 2.2-0.6 0.3-1.9-0.5-1.7-1.3 0.2-0.7-0.7-1-0.7-1.7 0.1-0.7 1.4-1.2 1.4-1.2z"/><path fill-rule="evenodd" class="c" d="m7.6 39.9q0.1 0.2 0.2 0.3 0.1 0.2 0.3 0.3 0.1 0.2 0.3 0.3 0.1 0.1 0.3 0.2c2.3 1.8 2.8-1.6 2.4-1.6-0.5 0-1.6-1.4-1.9-1.4-0.3 0-2 0.6-1.6 1.9z"/></svg>