<svg id="Layer_1" data-name="Layer 1" xmlns="http://www.w3.org/2000/svg" viewBox="0 0 338.04 69.42"><defs><style>.cls-1{fill:#4c4b51;}.cls-2{fill:#5e4fe6;}.cls-3{fill:#d8e2ff;fill-rule:evenodd;}</style></defs><path class="cls-1" d="M143.35,70.73c0,6.75-5.28,11.61-12.54,11.61h-8.35V59.14h8.41C138.14,59.14,143.35,64,143.35,70.73Zm-4.48,0c0-4.52-3.2-7.46-8-7.46h-4V78.15h4C135.61,78.15,138.87,75.17,138.87,70.73Z" transform="translate(-37.18 -35.66)"/><path class="cls-1" d="M163.13,66.25V82.34H159v-2.4a5.85,5.85,0,0,1-5.22,2.75c-4.51,0-7.64-3.42-7.64-8.38s3.16-8.42,7.74-8.42A5.71,5.71,0,0,1,159,68.65v-2.4ZM159,74.31a4.25,4.25,0,0,0-4.32-4.45,4.46,4.46,0,0,0,0,8.9A4.26,4.26,0,0,0,159,74.31Z" transform="translate(-37.18 -35.66)"/><path class="cls-1" d="M179.29,81.7a9.76,9.76,0,0,1-4.58,1c-4.19,0-6.24-2-6.24-6.27V69.93h-2.84V66.25h2.84V61.93h4.29v4.32h5.47v3.68h-5.47v6.2c0,2,.67,2.69,2.5,2.72A4.51,4.51,0,0,0,178,78Z" transform="translate(-37.18 -35.66)"/><path class="cls-1" d="M197.27,66.25V82.34h-4.16v-2.4a5.85,5.85,0,0,1-5.21,2.75c-4.51,0-7.65-3.42-7.65-8.38s3.17-8.42,7.74-8.42a5.68,5.68,0,0,1,5.12,2.76v-2.4Zm-4.16,8.06a4.25,4.25,0,0,0-4.32-4.45,4.46,4.46,0,0,0,0,8.9A4.26,4.26,0,0,0,193.11,74.31Z" transform="translate(-37.18 -35.66)"/><path class="cls-1" d="M215.9,66.25h5.5v3.68h-5.5V82.34h-4.29V69.93h-2.88V66.25h2.88V64.52c0-3.94,2.37-6.34,6.34-6.34a7.4,7.4,0,0,1,4.67,1.51L221.18,63a4.05,4.05,0,0,0-2.63-1,2.42,2.42,0,0,0-2.65,2.72Z" transform="translate(-37.18 -35.66)"/><path class="cls-1" d="M222.23,74.31c0-4.83,3.72-8.42,8.8-8.42s8.77,3.46,8.77,8.42c0,4.8-3.71,8.38-8.77,8.38S222.23,79.17,222.23,74.31Zm13.22,0A4.2,4.2,0,0,0,231,69.83a4.47,4.47,0,1,0,4.42,4.48Z" transform="translate(-37.18 -35.66)"/><path class="cls-1" d="M243.16,66.25h4.16v3.36A5.33,5.33,0,0,1,252.63,66a3.52,3.52,0,0,1,1,.1l-.25,4.32h-.64c-3.71,0-5.25,1.6-5.25,5.79v6.14h-4.29Z" transform="translate(-37.18 -35.66)"/><path class="cls-1" d="M264.44,70.73a11.63,11.63,0,0,1,12-11.94,11.24,11.24,0,0,1,10.53,6.11l-4.26,1.6a6.57,6.57,0,0,0-6.27-3.58c-4.35,0-7.49,3.23-7.49,7.81s3.1,7.8,7.46,7.8a6.78,6.78,0,0,0,7.07-5.69H276V69.22h12.07a12.86,12.86,0,0,1,.09,1.54c0,7-4.77,11.93-11.81,11.93A11.56,11.56,0,0,1,264.44,70.73Z" transform="translate(-37.18 -35.66)"/><path class="cls-1" d="M291.67,66.25h4.16v3.36A5.33,5.33,0,0,1,301.14,66a3.52,3.52,0,0,1,1,.1l-.25,4.32h-.64c-3.71,0-5.25,1.6-5.25,5.79v6.14h-4.29Z" transform="translate(-37.18 -35.66)"/><path class="cls-1" d="M319.54,75.65H307.48a3.67,3.67,0,0,0,4,3.24A3.56,3.56,0,0,0,315,77l3.81,1.73a8.54,8.54,0,0,1-15.71-4.51c0-4.84,3.55-8.32,8.54-8.32,4.74,0,7.94,3.42,7.94,8.44C319.61,75,319.54,75.65,319.54,75.65Zm-4.12-3.16c-.16-1.76-1.6-2.95-3.78-2.95s-3.62,1-4.1,2.95Z" transform="translate(-37.18 -35.66)"/><path class="cls-1" d="M338.39,75.65H326.33a3.67,3.67,0,0,0,4,3.24A3.56,3.56,0,0,0,333.88,77l3.81,1.73A8.54,8.54,0,0,1,322,74.25c0-4.84,3.55-8.32,8.54-8.32,4.74,0,7.94,3.42,7.94,8.44C338.46,75,338.39,75.65,338.39,75.65Zm-4.13-3.16c-.16-1.76-1.6-2.95-3.77-2.95s-3.62,1-4.1,2.95Z" transform="translate(-37.18 -35.66)"/><path class="cls-1" d="M340.82,74.25a8.25,8.25,0,0,1,8.55-8.36,8,8,0,0,1,7.36,4.48l-3.94,1.54a3.79,3.79,0,0,0-3.42-2,4.1,4.1,0,0,0-4.16,4.35c0,2.63,1.66,4.45,4,4.45A4,4,0,0,0,353,76.45L356.89,78a8.49,8.49,0,0,1-16.07-3.77Z" transform="translate(-37.18 -35.66)"/><path class="cls-1" d="M375.16,75.65H363.1a3.67,3.67,0,0,0,4,3.24A3.56,3.56,0,0,0,370.65,77l3.81,1.73a8.55,8.55,0,0,1-15.72-4.51c0-4.84,3.56-8.32,8.55-8.32,4.73,0,7.93,3.42,7.93,8.44C375.22,75,375.16,75.65,375.16,75.65ZM371,72.49c-.16-1.76-1.6-2.95-3.77-2.95s-3.62,1-4.1,2.95Z" transform="translate(-37.18 -35.66)"/><path class="cls-2" d="M106,70.37v.28q0,.93-.06,1.86c0,.18,0,.37,0,.55-.05.67-.12,1.34-.21,2l-.09.6c-.11.74-.24,1.47-.4,2.2l-.15.66c-.2.83-.43,1.66-.69,2.47l-.25.76q-.52,1.5-1.17,2.94c-.14.32-.29.63-.44.94a33.39,33.39,0,0,1-2.36,4.11c-.38.58-.79,1.15-1.21,1.71a34.51,34.51,0,0,1-7.24,7.09c-.57.41-1.14.81-1.73,1.18A34.45,34.45,0,0,1,85.82,102l-.95.42q-1.44.6-2.94,1.08l-.76.23c-.81.24-1.64.45-2.47.62l-.66.14c-.72.14-1.45.25-2.19.34l-.59.07c-.66.07-1.33.12-2,.15l-.54,0-1.13,0h-.72l-.51,0c-.58,0-1.15,0-1.73-.1l-.47,0c-.55-.05-1.09-.12-1.63-.2l-.46-.07c-.51-.08-1-.18-1.54-.29h0c-.14,0-.28,0-.42-.09q-.75-.16-1.47-.36l-.41-.11-1.4-.43-.39-.14c-.45-.15-.89-.32-1.33-.49l-.37-.15c-.43-.17-.86-.35-1.28-.55l-.35-.16h0c-.41-.19-.82-.39-1.22-.6l-.34-.18q-.6-.31-1.17-.66l-.33-.19h0c-.38-.22-.75-.46-1.12-.7l-.31-.21c-.37-.24-.73-.49-1.08-.74l-.3-.22c-.34-.26-.69-.52-1-.79l-.29-.24-1-.83-.28-.25c-.32-.28-.63-.58-.94-.88l-.26-.25-.9-.92-.24-.27c-.29-.32-.58-.64-.86-1l-.23-.28c-.28-.33-.55-.66-.81-1l-.22-.3c-.27-.34-.52-.69-.77-1l-.21-.3c-.25-.36-.49-.73-.72-1.1-.06-.11-.13-.21-.2-.32-.23-.37-.45-.76-.67-1.14l-.18-.33c-.22-.39-.42-.79-.62-1.19-.06-.12-.12-.23-.17-.35-.2-.41-.39-.82-.57-1.24-.06-.12-.11-.24-.16-.36-.18-.42-.35-.85-.52-1.29-.05-.12-.09-.25-.14-.38-.16-.44-.31-.89-.46-1.35l-.12-.39c-.14-.46-.27-.93-.4-1.41,0-.13-.07-.27-.1-.41-.12-.48-.23-1-.33-1.47,0-.15-.06-.29-.08-.43h0c-.1-.52-.19-1-.26-1.55l-.06-.46c-.07-.54-.13-1.08-.17-1.63,0-.16,0-.32,0-.48,0-.57-.06-1.14-.07-1.72,0-.17,0-.34,0-.51v-.15c0-.57,0-1.13,0-1.69h0l0-.54q.06-1,.18-2c0-.19,0-.39.08-.58h0q.15-1.1.36-2.16h0c.05-.21.09-.43.14-.64h0c.18-.81.39-1.61.62-2.41.08-.24.15-.49.23-.73.31-1,.66-1.91,1-2.83l.39-.9h0a34.57,34.57,0,0,1,2-3.76c.29-.47.59-.94.91-1.39A34.74,34.74,0,0,1,53,41.18h0c.46-.31.93-.59,1.41-.87h0a34.15,34.15,0,0,1,3.77-1.91h0l.9-.37h0c.93-.36,1.87-.69,2.83-1l.74-.21c.79-.21,1.6-.4,2.41-.56l.64-.12c.71-.12,1.43-.22,2.15-.3h0a5.7,5.7,0,0,1,.58-.06c.65-.06,1.31-.11,2-.13h1.21l1.15,0h0l.5,0c.57,0,1.14.07,1.71.13h0l.47,0c.55.06,1.08.14,1.61.22l.45.08h0q.78.13,1.53.3l.42.1c.49.11,1,.24,1.46.37l.4.12c.47.14.93.28,1.39.44l.38.14c.45.15.89.32,1.32.5l.37.15,1.27.56.35.17c.41.19.81.4,1.21.61l.34.18c.39.21.78.44,1.16.66h0l.32.2c.38.23.75.46,1.12.71l.31.21c.36.24.71.49,1.06.75l.3.23c.34.25.68.52,1,.79l.28.24c.33.27.66.56,1,.84l.27.25c.31.29.62.58.93.89l.26.25c.3.31.6.62.89.94l.24.27c.29.31.57.64.85,1l.23.28c.28.34.54.67.8,1a3.15,3.15,0,0,1,.22.29c.26.35.51.7.76,1.06l.21.31c.24.36.48.73.71,1.1l.19.33c.23.37.45.76.66,1.15.07.11.13.22.19.33.21.39.41.79.61,1.2.06.11.11.23.17.35.19.41.38.83.56,1.25l.15.36c.18.43.35.86.51,1.3,0,.13.09.25.13.38.16.45.31.9.45,1.36l.12.4c.14.47.27.94.39,1.42,0,.14.07.27.1.41.11.49.22,1,.31,1.49,0,.14.06.29.08.44.1.51.18,1,.24,1.56,0,.15,0,.3.06.46q.1.81.15,1.65a3.87,3.87,0,0,1,0,.48c0,.58,0,1.16.06,1.75Z" transform="translate(-37.18 -35.66)"/><g id="Layer_1-2" data-name="Layer 1"><path class="cls-3" d="M79.07,45.46c.15.69,1.48,2.24.48,2.94a4.79,4.79,0,0,1-2.7,1c-.78,0-.88-.33-3.1-.82s-3.82-2.18-5.63-.64-7.45,2.52-10,2.89a8.2,8.2,0,0,0-4.36,2.3c-.21.18-2.14-2.27-2.59-.42s.09,2.36-.3,2.58A38.19,38.19,0,0,0,47.5,58c-.45.38.23,1.06,0,1.59-.59,1.11-1.83,2.2-1.5,3.08,1.08,2.91,2.46,3.24,2.76,4.16s.55,2.24,0,3-1.2,3.27-.12,3,2.59-2.79,3.43-2,1.45,2,2.83,1.46,2.53-1.64,4-.73,4.21,1.39,4,2.06-.66,1.27-1.56,1S59.19,73.4,58,73.4a15.94,15.94,0,0,0-4.87,1c-.43.36-2.77,1-2,1.58s1.71,0,2.41,2.24-.85.73-.3,2.43A6.33,6.33,0,0,0,54.8,83.5c.42.43.84.73,1-.79s1.33-1.33,1.6-.39.94,1.59.91,2.55.49,1.62.71,1.33.32-2,.68-2.3,1.16-.16,1.56.71a6.58,6.58,0,0,0,1.1,1.56s1.16.23.86-.57a24.15,24.15,0,0,1-.62-2.48c-.31-1.21-2.51-4.16-1.66-4.3,1.08-.18,1.76,1,2.22,1.82S64.7,82,64.85,81.91a15.83,15.83,0,0,0,1.39-1.42c.22-.29,1.2-1.25-.24-1.47a4.91,4.91,0,0,1-2.43-1.19s.35-2.42,1.49-1.85,1.84.18,2.46,1.25,1.45,1.2,1.85,1-1.17-3.69-1-4.48,1.23.46,1.75,1,4.48,3.58,5,4.25,1.07-1.75.32-2.69A16.42,16.42,0,0,0,73,74c-.9-.76-2.87-2.22-2.87-2.22s-.09-3-1.66-2.94a5.47,5.47,0,0,1-3.73-1.13,5.1,5.1,0,0,1-.69-2.18,11.17,11.17,0,0,1-1.95-2.85c-.88-1.79-1.27-1.64-1.66-3s-.24-4.94.69-4.79,1.33,2.58,1.9,3.34,1.55,0,2.79.7,2.23,1.63,2.71,1.39c.71-.36-.21-1.72.17-2.18.77-.94,1.76-.82.7-1.58s-2.21-.61-2.51-1.47-.64-2,.27-1.55,2.87-.44,3.25-.2,1,2.77,2,3.36a1.47,1.47,0,0,0,1.79-.94c.36-1.31.46-4.63,1.34-4C77.06,53,77.94,54.65,80,53.51c1.32-.73,1.14-1.18,1.8-2.43S83.17,50,83.2,48.62s-.75-2.61-4.13-3.16Z" transform="translate(-37.18 -35.66)"/><path class="cls-3" d="M64,88.22s1.88-.47,2.87.44,1.48-1.91,2.14-.4.74,2.66,2.25,2.39a13,13,0,0,1,4.54.09c1.2.38,3.86.79,4.5.94.81.18.69,1.73,0,2s-2.13-.52-3-.37-3.28.61-3.61.61a10.13,10.13,0,0,1-3-.15c-.49-.3-.58-1.09-1.27-1.33s-3.82-.55-4.18-.79-2.5-1.25-1.29-3.4Z" transform="translate(-37.18 -35.66)"/><path class="cls-3" d="M91.06,85.64a3.8,3.8,0,0,0-1.83,2.73c-.09,1.18,0,2.21,1.14,1.79s1.81-2.94,2.11-3.37-.3-1.52-1.42-1.15Z" transform="translate(-37.18 -35.66)"/><path class="cls-3" d="M85.92,76.41c-.39-.18-1.77-1.42-2.34-.75-1,1.22-3.25-.19-3.5.23s-2.49,2.6-1.8,2.5A27.13,27.13,0,0,1,81,78.1c.45,0,.45,1.33,1.5.66a5.92,5.92,0,0,1,2.27-1c.3,0,1.8-.12,1.11-1.34Z" transform="translate(-37.18 -35.66)"/><path class="cls-3" d="M77.65,64.64c.31-1,.47-.85,1.88-1.64s2.36,1.13,2.63,1.61,2.29,2.46,1.08,2.7-2.28-.65-2.73-.8a18.47,18.47,0,0,1-2.08-.24C77.89,66,77.65,64.64,77.65,64.64Z" transform="translate(-37.18 -35.66)"/><path class="cls-3" d="M79.3,69.28c.85.7,1.54,1.28,1.54,2s0,1.91-.6,2.21-1.9-.57-1.69-1.3-.66-1-.63-1.73,1.38-1.22,1.38-1.22Z" transform="translate(-37.18 -35.66)"/><path class="cls-3" d="M44.79,75.54a2.78,2.78,0,0,0,1.08,1.15c2.35,1.73,2.8-1.66,2.37-1.66s-1.6-1.39-1.87-1.39-2,.63-1.58,1.9Z" transform="translate(-37.18 -35.66)"/></g><text x="-37.18" y="-35.66"/></svg>